<svg width="1681" height="1641" viewBox="0 0 1681 1641" fill="none" xmlns="http://www.w3.org/2000/svg">
<g filter="url(#filter0_f_1_114)">
<path d="M25.7747 420.966C-91.1392 -2.69223 341.953 -45.8156 654.503 82.1073C836.861 147.896 956.618 -56.7027 1182.52 24.9502C1408.43 106.603 1137.62 363.81 1483.28 495.815C1828.94 627.821 1660.19 1218.44 1358.08 1225.25C1055.96 1232.05 1138.98 1331.4 836.861 1558.66C534.745 1785.93 25.7754 1470.21 152.337 1136.79C278.899 803.374 152.336 879.584 25.7747 420.966Z" stroke="white" stroke-width="0.5"/>
<path d="M675.997 750.677C662.507 710.326 725.691 645.229 776.497 673.01C823.021 698.45 870.398 681.293 901.698 692.634C984.1 722.492 953.79 738.297 990.625 773.758C1035.45 816.909 1056.84 929.903 953.79 929.903C869.037 929.903 894.396 971.067 830.932 989.306C767.468 1007.54 695.496 976.498 695.496 894.759C695.496 864.064 698.464 817.883 675.997 750.677Z" stroke="white" stroke-width="0.5"/>
<path d="M84.8789 448.881C-22.6327 60.0686 376.832 14.9477 665.586 133.767C835.596 195.888 948.773 8.32882 1156.99 83.5898C1369.85 160.534 1120.9 395.795 1438.49 519.024C1756.8 642.952 1605.34 1190.15 1321.32 1196.34C1038.96 1202.52 1116.73 1296.58 836.315 1504.84C555.895 1713.11 86.6522 1423.26 201.708 1112.73C316.765 806.832 201.977 871.916 84.8789 448.881Z" stroke="white" stroke-width="0.5"/>
<path d="M143.98 476.799C45.871 122.832 411.707 75.7137 676.667 185.429C834.328 243.882 940.925 73.3631 1131.45 142.232C1331.26 214.468 1104.18 427.783 1393.69 542.235C1684.66 658.085 1550.48 1161.87 1284.55 1167.43C1021.96 1173 1094.49 1261.77 835.766 1451.03C577.042 1640.29 147.526 1376.33 251.077 1088.67C354.628 810.294 251.615 864.25 143.98 476.799Z" stroke="white" stroke-width="0.5"/>
<path d="M203.082 504.717C114.375 185.597 446.583 136.481 687.748 237.093C833.061 291.877 933.078 138.399 1105.91 200.876C1292.68 268.403 1087.46 459.773 1348.89 565.448C1612.51 673.22 1495.62 1133.58 1247.79 1138.53C1004.96 1143.48 1072.25 1226.95 835.218 1397.21C598.189 1567.47 208.401 1329.39 300.446 1064.61C392.491 813.756 301.254 856.586 203.082 504.717Z" stroke="white" stroke-width="0.5"/>
<path d="M262.185 532.637C182.88 248.363 481.46 197.249 698.83 288.757C831.794 339.874 925.231 203.435 1080.37 259.52C1254.09 322.339 1070.74 491.763 1304.1 588.661C1540.37 688.356 1440.76 1105.3 1211.03 1109.63C987.955 1113.96 1050 1192.14 834.67 1343.4C619.337 1494.66 269.276 1282.45 349.815 1040.55C430.354 817.219 350.893 848.923 262.185 532.637Z" stroke="white" stroke-width="0.5"/>
<path d="M321.297 561.972C251.394 312.544 516.346 259.433 709.921 341.837C830.537 389.285 917.394 269.887 1054.84 319.58C1215.52 377.69 1054.03 525.168 1259.31 613.29C1468.23 704.907 1385.91 1078.43 1174.28 1082.14C970.963 1085.85 1027.77 1158.75 834.132 1291C640.495 1423.26 330.16 1236.93 399.194 1017.91C468.228 822.097 400.543 842.675 321.297 561.972Z" stroke="white" stroke-width="0.5"/>
<path d="M380.401 592.98C319.9 378.399 551.224 323.29 721.005 396.59C829.271 440.37 909.548 338.012 1029.31 381.313C1176.94 434.715 1037.31 560.247 1214.52 639.592C1396.09 723.132 1331.05 1053.23 1137.52 1056.32C953.962 1059.42 1005.53 1127.02 833.586 1240.28C661.644 1353.53 391.037 1193.08 448.565 996.945C506.093 828.65 450.183 838.101 380.401 592.98Z" stroke="white" stroke-width="0.5"/>
<path d="M439.506 624.081C388.408 444.346 586.104 387.24 732.089 451.436C828.008 491.548 901.704 406.23 1003.77 443.139C1138.36 491.832 1020.59 595.419 1169.73 665.987C1323.95 741.449 1276.19 1028.13 1100.76 1030.6C936.964 1033.07 983.288 1095.39 833.042 1189.64C682.795 1283.89 451.915 1149.33 497.938 976.07C543.96 835.294 499.826 833.619 439.506 624.081Z" stroke="white" stroke-width="0.5"/>
<path d="M498.617 655.316C456.921 510.426 620.989 451.322 743.179 506.415C826.749 542.859 893.866 474.581 978.241 505.098C1099.78 549.082 1003.88 630.724 1124.94 692.515C1251.81 759.899 1221.34 1003.16 1064 1005.01C919.97 1006.87 961.053 1063.9 832.502 1139.15C703.952 1214.39 512.799 1105.71 547.315 955.328C581.832 842.072 549.474 829.27 498.617 655.316Z" stroke="white" stroke-width="0.5"/>
<path d="M557.729 686.748C525.435 576.705 655.875 515.604 754.271 561.592C825.492 594.369 886.029 543.131 952.712 567.256C1061.21 606.531 987.167 666.227 1080.15 719.242C1179.68 778.548 1166.49 978.384 1027.25 979.621C902.978 980.858 938.819 1032.6 831.964 1088.84C725.109 1145.09 573.683 1062.28 596.694 934.784C619.706 849.048 599.123 825.12 557.729 686.748Z" stroke="white" stroke-width="0.5"/>
<path d="M616.853 718.48C593.961 643.283 690.773 580.184 765.374 617.069C824.247 646.177 878.203 611.98 927.195 629.713C1022.64 664.279 970.468 702.03 1035.38 746.267C1107.55 797.496 1111.66 953.911 990.51 954.53C885.997 955.148 916.597 1001.6 831.438 1038.84C746.279 1076.08 634.58 1019.16 646.085 914.539C657.591 856.324 648.783 821.269 616.853 718.48Z" stroke="white" stroke-width="0.5"/>
</g>
<defs>
<filter id="filter0_f_1_114" x="0.990295" y="0.139832" width="1679.85" height="1640.86" filterUnits="userSpaceOnUse" color-interpolation-filters="sRGB">
<feFlood flood-opacity="0" result="BackgroundImageFix"/>
<feBlend mode="normal" in="SourceGraphic" in2="BackgroundImageFix" result="shape"/>
<feGaussianBlur stdDeviation="2.5" result="effect1_foregroundBlur_1_114"/>
</filter>
</defs>
</svg>
