<svg width="18" height="18" viewBox="0 0 18 18" fill="none" xmlns="http://www.w3.org/2000/svg">
<circle cx="9" cy="9" r="8.5" fill="white" stroke="#E8E8E8"/>
<path fill-rule="evenodd" clip-rule="evenodd" d="M10.7186 5.83313C10.7187 5.83312 10.7187 5.83311 10.7187 5.8331C10.1892 5.40927 9.61228 5.04872 8.9995 4.75875C7.31175 3.97076 5.6672 3.96163 4.73402 4.8966C4.24508 5.38648 4.01483 6.07141 4.0196 6.85569C4.06865 6.48171 4.20928 6.16295 4.448 5.92377C4.6789 5.69242 4.98294 5.55347 5.3395 5.49999C5.88747 5.4178 6.55936 5.53717 7.28029 5.8331C7.83517 6.061 8.4193 6.39331 8.99805 6.81875M10.7186 5.83313C10.9641 6.02808 11.2052 6.23928 11.4419 6.46672L11.515 6.53761L11.5801 6.60284L11.6452 6.66807C11.6641 6.68697 11.6857 6.70948 11.7065 6.73103C11.7096 6.73428 11.7127 6.7375 11.7158 6.74069C12.0576 7.0955 12.3722 7.47572 12.6567 7.8781C12.9437 8.2821 13.1948 8.71048 13.4072 9.15836L13.4073 9.15867C13.4164 9.17814 13.4255 9.1976 13.4343 9.21706C14.2078 10.8985 14.2121 12.5327 13.2835 13.4631C12.6524 14.0954 11.6967 14.2959 10.6222 14.1154C11.2754 14.1863 11.8269 14.0522 12.1938 13.6845C12.4024 13.4755 12.5359 13.2061 12.5988 12.8935C12.7093 12.3455 12.6055 11.6615 12.3147 10.9228L12.3115 10.9144C12.1455 10.5018 11.9434 10.1049 11.7075 9.72804C11.323 9.10726 10.8275 8.47909 10.235 7.88549C9.85074 7.49941 9.4377 7.14316 8.9995 6.81982" fill="url(#paint0_linear_1_508)"/>
<g filter="url(#filter0_i_1_508)">
<path fill-rule="evenodd" clip-rule="evenodd" d="M7.74354 12.8444C8.18879 12.6933 8.6167 12.4951 9.02004 12.2532L9.00962 12.246C8.38787 11.8726 7.81501 11.423 7.3043 10.9075C6.93999 10.5436 6.60752 10.149 6.31058 9.72814C6.30992 9.7272 6.30926 9.72625 6.3086 9.72529C6.30573 9.72118 6.3028 9.71698 6.30016 9.71292C5.87264 9.10193 5.55709 8.47615 5.36178 7.87777C5.35961 7.87124 5.35766 7.86494 5.3557 7.85841C5.06772 6.96062 5.05579 6.12611 5.35961 5.49902L5.33791 5.5025C5.33832 5.50131 5.33883 5.50014 5.33943 5.49902C4.98287 5.55316 4.67883 5.69145 4.44792 5.9228C4.20877 6.16242 4.06858 6.48075 4.01953 6.85474C4.01982 6.90938 4.02127 6.96454 4.02387 7.0202C3.98785 7.64294 4.18121 8.39961 4.57379 9.19586C4.57705 9.20369 4.58052 9.21065 4.58399 9.2176C4.81341 9.67345 5.08208 10.1084 5.38696 10.5174C5.48215 10.6511 5.58205 10.7837 5.68665 10.9153C5.8322 11.0987 5.98657 11.2791 6.14977 11.4565L6.15389 11.4611C6.24576 11.5608 6.34031 11.6594 6.43753 11.7568C6.7495 12.07 7.08199 12.3619 7.43278 12.6307L7.43733 12.6342C7.53224 12.7066 7.62766 12.7767 7.72358 12.8444L7.73334 12.8412L7.73985 12.8457L7.74354 12.8444ZM12.1932 13.6852C12.4017 13.4763 12.5352 13.2075 12.5981 12.8942C11.9701 13.164 11.1532 13.1355 10.278 12.8451L10.2743 12.8438C9.87129 13.1298 9.44418 13.3802 8.99783 13.5922L8.97461 13.6028L8.99783 13.6141C9.57336 13.8911 10.1268 14.0625 10.6216 14.1162C11.2748 14.1871 11.8262 14.0529 12.1932 13.6852Z" fill="#BEFF97"/>
</g>
<path d="M13.979 6.85588C13.93 6.48193 13.7898 6.16364 13.5507 5.92406C13.3198 5.69273 13.0158 5.55446 12.6593 5.50032C12.1114 5.41814 11.4396 5.5375 10.7187 5.8334C10.1634 6.06146 9.57884 6.3941 8.99969 6.82001C8.56099 7.1436 8.14751 7.50017 7.76283 7.88663C7.17521 8.47538 6.68307 9.09804 6.30008 9.71288L6.29053 9.7281C6.0547 10.1049 5.85262 10.5018 5.68664 10.9143L5.68338 10.9228C5.39261 11.662 5.2889 12.3453 5.39934 12.8932C5.46227 13.2065 5.59572 13.4752 5.80425 13.6841C6.17119 14.0517 6.72256 14.1859 7.37571 14.115C6.30138 14.2948 5.34575 14.0944 4.71473 13.4628C3.78622 12.5325 3.79056 10.8973 4.56435 9.2174C4.56761 9.21044 4.57065 9.20348 4.57412 9.19566C4.57976 9.18305 4.58562 9.17044 4.59148 9.15783C4.80384 8.71001 5.05492 8.28167 5.34184 7.87771L5.35573 7.85836C5.63657 7.46315 5.94642 7.08948 6.28272 6.74044C6.30616 6.71609 6.32966 6.69188 6.35324 6.66782C6.37494 6.64608 6.39664 6.62434 6.41834 6.6026L6.48344 6.53737L6.55591 6.46671C6.79186 6.2393 7.03337 6.02776 7.28045 5.83209C7.80985 5.40831 8.38675 5.0478 8.99947 4.75786C10.687 3.96997 12.331 3.9604 13.2645 4.8957C13.7536 5.38596 13.9838 6.07168 13.979 6.85588Z" fill="url(#paint1_linear_1_508)"/>
<mask id="mask0_1_508" style="mask-type:alpha" maskUnits="userSpaceOnUse" x="4" y="4" width="11" height="11">
<path fill-rule="evenodd" clip-rule="evenodd" d="M10.7206 5.83264C10.7206 5.83263 10.7206 5.83262 10.7207 5.83261C10.1912 5.40878 9.61424 5.04823 9.00145 4.75826C7.31371 3.97028 5.66915 3.96114 4.73598 4.89611C4.24704 5.386 4.01678 6.07092 4.02156 6.85521C4.0706 6.48122 4.21123 6.16246 4.44995 5.92328C4.68085 5.69193 4.98489 5.55299 5.34145 5.4995C5.88942 5.41731 6.56131 5.53668 7.28224 5.83261C7.83712 6.06051 8.42125 6.39282 9 6.81826M10.7206 5.83264C10.9661 6.02759 11.2071 6.23879 11.4438 6.46624L11.517 6.53712L11.5821 6.60235L11.6472 6.66758C11.666 6.68648 11.6877 6.70899 11.7084 6.73054C11.7115 6.73379 11.7146 6.73702 11.7177 6.7402C12.0596 7.09501 12.3741 7.47523 12.6587 7.87761C12.9456 8.28161 13.1967 8.71 13.4091 9.15787L13.4093 9.15818C13.4183 9.17765 13.4274 9.19711 13.4363 9.21658C14.2097 10.898 14.2141 12.5322 13.2854 13.4627C12.6544 14.095 11.6986 14.2954 10.6242 14.115C11.2774 14.1858 11.8288 14.0517 12.1958 13.684C12.4043 13.475 12.5378 13.2056 12.6007 12.893C12.7112 12.345 12.6075 11.661 12.3167 10.9224L12.3134 10.9139C12.1474 10.5014 11.9453 10.1044 11.7095 9.72755C11.3249 9.10677 10.8295 8.4786 10.237 7.885C9.85269 7.49892 9.43965 7.14267 9.00145 6.81933" fill="url(#paint2_linear_1_508)"/>
</mask>
<g mask="url(#mask0_1_508)">
<g filter="url(#filter1_d_1_508)">
<path d="M13.981 6.85539C13.9319 6.48145 13.7918 6.16316 13.5526 5.92357C13.3217 5.69224 13.0177 5.55397 12.6612 5.49984C12.1133 5.41765 11.4415 5.53701 10.7207 5.83291C10.1654 6.06097 9.58079 6.39361 9.00164 6.81952C8.56295 7.14311 8.14947 7.49968 7.76478 7.88614C7.17717 8.47489 6.68502 9.09755 6.30203 9.71239L6.29248 9.72761C6.05666 10.1044 5.85458 10.5013 5.6886 10.9138L5.68534 10.9223C5.39457 11.6615 5.29085 12.3448 5.4013 12.8927C5.46423 13.206 5.59767 13.4747 5.8062 13.6836C6.17314 14.0513 6.72452 14.1854 7.37766 14.1145C6.30333 14.2943 5.3477 14.0939 4.71668 13.4623C3.78817 12.532 3.79251 10.8968 4.56631 9.21691C4.56956 9.20995 4.5726 9.203 4.57607 9.19517C4.58172 9.18256 4.58757 9.16995 4.59343 9.15734C4.80579 8.70952 5.05687 8.28118 5.34379 7.87722L5.35768 7.85787C5.63852 7.46267 5.94837 7.08899 6.28467 6.73995C6.30811 6.7156 6.33162 6.69139 6.3552 6.66733C6.3769 6.64559 6.3986 6.62385 6.4203 6.60211L6.48539 6.53688L6.55786 6.46623C6.79381 6.23881 7.03532 6.02727 7.28241 5.8316C7.81181 5.40782 8.3887 5.04731 9.00142 4.75738C10.689 3.96948 12.3329 3.95991 13.2664 4.89521C13.7555 5.38548 13.9857 6.07119 13.981 6.85539Z" fill="url(#paint3_linear_1_508)"/>
</g>
</g>
<g filter="url(#filter2_i_1_508)">
<path fill-rule="evenodd" clip-rule="evenodd" d="M13.4106 9.15949C13.4197 9.17906 13.4288 9.19863 13.4377 9.2182C13.8728 8.34324 14.0684 7.51329 13.9822 6.8562C13.9332 6.48221 13.7926 6.16345 13.5538 5.92427C13.3229 5.69292 13.0189 5.55398 12.6623 5.50049C12.9681 6.13214 12.954 6.97405 12.6602 7.87923C12.9471 8.28323 13.1982 8.71162 13.4106 9.15949ZM11.8521 11.4566C12.0163 11.2809 12.1718 11.1034 12.3185 10.9239L12.3156 10.9163C12.1496 10.5038 11.9475 10.1068 11.7117 9.72998C11.4147 10.1509 11.0823 10.5454 10.718 10.9093C10.2073 11.4248 9.63439 11.8744 9.01264 12.2479L9.00266 12.2538C8.60223 12.4936 8.17763 12.6904 7.73593 12.8408L7.72617 12.8441L7.72248 12.8454C6.84725 13.1359 6.02952 13.1644 5.40234 12.8945C5.46528 13.2072 5.59875 13.4766 5.8073 13.6856C6.17428 14.0532 6.72572 14.1874 7.37894 14.1165C7.87417 14.0628 8.42713 13.8915 9.00266 13.6145L9.02588 13.6032C9.4657 13.387 9.88622 13.1335 10.2828 12.8454C10.3769 12.7768 10.4709 12.7063 10.565 12.6338L10.5695 12.6303C10.9202 12.3617 11.2525 12.0699 11.5643 11.7569C11.6616 11.6594 11.7561 11.5608 11.848 11.4612L11.8521 11.4566Z" fill="#BEFF97"/>
</g>
<defs>
<filter id="filter0_i_1_508" x="4.01953" y="5.49902" width="8.57861" height="9.33104" filterUnits="userSpaceOnUse" color-interpolation-filters="sRGB">
<feFlood flood-opacity="0" result="BackgroundImageFix"/>
<feBlend mode="normal" in="SourceGraphic" in2="BackgroundImageFix" result="shape"/>
<feColorMatrix in="SourceAlpha" type="matrix" values="0 0 0 0 0 0 0 0 0 0 0 0 0 0 0 0 0 0 127 0" result="hardAlpha"/>
<feOffset dy="0.695653"/>
<feGaussianBlur stdDeviation="1.73913"/>
<feComposite in2="hardAlpha" operator="arithmetic" k2="-1" k3="1"/>
<feColorMatrix type="matrix" values="0 0 0 0 0 0 0 0 0 0 0 0 0 0 0 0 0 0 0.15 0"/>
<feBlend mode="normal" in2="shape" result="effect1_innerShadow_1_508"/>
</filter>
<filter id="filter1_d_1_508" x="0.523687" y="-0.342547" width="20.4139" height="20.4332" filterUnits="userSpaceOnUse" color-interpolation-filters="sRGB">
<feFlood flood-opacity="0" result="BackgroundImageFix"/>
<feColorMatrix in="SourceAlpha" type="matrix" values="0 0 0 0 0 0 0 0 0 0 0 0 0 0 0 0 0 0 127 0" result="hardAlpha"/>
<feOffset dx="1.73913" dy="0.695653"/>
<feGaussianBlur stdDeviation="2.6087"/>
<feComposite in2="hardAlpha" operator="out"/>
<feColorMatrix type="matrix" values="0 0 0 0 0.0784314 0 0 0 0 0.564706 0 0 0 0 0.027451 0 0 0 1 0"/>
<feBlend mode="normal" in2="BackgroundImageFix" result="effect1_dropShadow_1_508"/>
<feBlend mode="normal" in="SourceGraphic" in2="effect1_dropShadow_1_508" result="shape"/>
</filter>
<filter id="filter2_i_1_508" x="5.40234" y="5.50049" width="8.59979" height="9.32992" filterUnits="userSpaceOnUse" color-interpolation-filters="sRGB">
<feFlood flood-opacity="0" result="BackgroundImageFix"/>
<feBlend mode="normal" in="SourceGraphic" in2="BackgroundImageFix" result="shape"/>
<feColorMatrix in="SourceAlpha" type="matrix" values="0 0 0 0 0 0 0 0 0 0 0 0 0 0 0 0 0 0 127 0" result="hardAlpha"/>
<feOffset dy="0.695653"/>
<feGaussianBlur stdDeviation="1.73913"/>
<feComposite in2="hardAlpha" operator="arithmetic" k2="-1" k3="1"/>
<feColorMatrix type="matrix" values="0 0 0 0 0 0 0 0 0 0 0 0 0 0 0 0 0 0 0.15 0"/>
<feBlend mode="normal" in2="shape" result="effect1_innerShadow_1_508"/>
</filter>
<linearGradient id="paint0_linear_1_508" x1="4.01953" y1="14.1789" x2="-1.49692" y2="-2.28498" gradientUnits="userSpaceOnUse">
<stop stop-color="#0B8A00"/>
<stop offset="0.640625" stop-color="#BEFF97"/>
</linearGradient>
<linearGradient id="paint1_linear_1_508" x1="4" y1="14.1781" x2="-1.51652" y2="-2.28611" gradientUnits="userSpaceOnUse">
<stop stop-color="#0B8A00"/>
<stop offset="0.640625" stop-color="#BEFF97"/>
</linearGradient>
<linearGradient id="paint2_linear_1_508" x1="4.02148" y1="14.1784" x2="-1.49497" y2="-2.28547" gradientUnits="userSpaceOnUse">
<stop stop-color="#0B8A00"/>
<stop offset="0.640625" stop-color="#BEFF97"/>
</linearGradient>
<linearGradient id="paint3_linear_1_508" x1="4.00195" y1="14.1776" x2="-1.51457" y2="-2.28659" gradientUnits="userSpaceOnUse">
<stop stop-color="#0B8A00"/>
<stop offset="0.640625" stop-color="#BEFF97"/>
</linearGradient>
</defs>
</svg>
