<svg width="2192" height="2847" viewBox="0 0 2192 2847" fill="none" xmlns="http://www.w3.org/2000/svg">
<g opacity="0.4" filter="url(#filter0_f_1_158)">
<path fill-rule="evenodd" clip-rule="evenodd" d="M1094.09 775.634C1094.07 775.65 1094.06 775.667 1094.04 775.683C972.638 658.708 850.098 567.349 733.699 504.712C582.594 423.445 441.767 390.663 326.915 413.234C252.181 427.923 188.455 466.079 140.058 529.612C90.0229 595.295 60.5478 682.832 50.2679 785.535C49.2672 570.156 97.5278 382.065 200.008 247.535C395.599 -9.2245 740.294 -6.71641 1094.04 209.678C1222.42 289.272 1343.3 388.231 1454.23 504.553C1454.25 504.543 1454.27 504.532 1454.29 504.522C1505.84 558.143 1556.46 616.242 1606.17 678.82L1621.5 698.286L1635.14 716.199L1648.79 734.113C1652.74 739.299 1657.27 745.477 1661.62 751.394C1662.27 752.289 1662.93 753.178 1663.57 754.056C1735.22 851.492 1801.15 955.907 1860.8 1066.41C1920.94 1177.35 1973.57 1294.99 2018.09 1417.99C2020 1423.36 2021.91 1428.74 2023.78 1434.11C2185.89 1895.86 2186.8 2344.65 1992.16 2600.16C1859.89 2773.8 1659.57 2828.85 1434.37 2779.29C1571.28 2798.76 1686.86 2761.91 1763.78 2660.94C1807.49 2603.56 1835.46 2529.58 1848.65 2443.71C1871.81 2293.24 1850.06 2105.39 1789.11 1902.55L1788.43 1900.22C1753.64 1786.93 1711.28 1677.91 1661.84 1574.43C1581.24 1403.96 1477.4 1231.45 1353.22 1068.44C1272.62 962.353 1186 864.47 1094.09 775.634Z" fill="url(#paint0_linear_1_158)"/>
<g filter="url(#filter1_i_1_158)">
<path fill-rule="evenodd" clip-rule="evenodd" d="M830.85 2430.03C924.172 2388.53 1013.86 2334.11 1098.4 2267.67L1096.22 2265.7C965.9 2163.15 845.83 2039.67 738.786 1898.12C662.426 1798.18 592.743 1689.82 530.504 1574.24C530.366 1573.98 530.227 1573.72 530.087 1573.45C529.487 1572.33 528.874 1571.17 528.321 1570.06C438.713 1402.27 372.576 1230.42 331.638 1066.1C331.183 1064.3 330.774 1062.57 330.364 1060.78C270.004 814.233 267.503 585.06 331.184 412.852L326.635 413.807C326.722 413.478 326.828 413.159 326.953 412.852C252.219 427.72 188.494 465.696 140.096 529.229C89.9704 595.032 60.5863 682.45 50.3064 785.154C50.367 800.161 50.6701 815.308 51.2159 830.594C43.6652 1001.61 84.1938 1209.4 166.478 1428.07C167.161 1430.22 167.888 1432.13 168.616 1434.04C216.701 1559.22 273.014 1678.66 336.915 1790.99C356.869 1827.7 377.807 1864.12 399.731 1900.27C430.237 1950.62 462.593 2000.16 496.799 2048.89L497.663 2050.14C516.919 2077.53 536.736 2104.6 557.114 2131.35C622.501 2217.35 692.19 2297.52 765.714 2371.33L766.669 2372.29C786.562 2392.19 806.561 2411.44 826.665 2430.03L828.712 2429.13L830.077 2430.38L830.85 2430.03ZM1763.77 2661.13C1807.48 2603.75 1835.45 2529.95 1848.64 2443.9C1717.01 2518 1545.8 2510.18 1362.35 2430.41L1361.58 2430.05C1277.1 2508.61 1187.58 2577.38 1094.03 2635.58L1089.16 2638.5L1094.03 2641.61C1214.66 2717.68 1330.65 2764.73 1434.36 2779.48C1571.27 2798.95 1686.85 2762.1 1763.77 2661.13Z" fill="#5DFDB0"/>
</g>
<g filter="url(#filter2_i_1_158)">
<path fill-rule="evenodd" clip-rule="evenodd" d="M2018.01 1418.05C2019.92 1423.43 2021.83 1428.8 2023.69 1434.17C2114.89 1193.89 2155.88 965.976 2137.82 785.528C2127.54 682.824 2098.06 595.287 2048.03 529.604C1999.63 466.071 1935.9 427.916 1861.17 413.227C1925.26 586.688 1922.3 817.892 1860.72 1066.47C1920.86 1177.42 1973.49 1295.06 2018.01 1418.05ZM1691.37 2049.01C1725.79 2000.77 1758.37 1952 1789.12 1902.72L1788.53 1900.63C1753.73 1787.35 1711.37 1678.33 1661.94 1574.85C1599.7 1690.43 1530.02 1798.79 1453.66 1898.72C1346.61 2040.27 1226.54 2163.75 1096.23 2266.31L1094.13 2267.92C1010.2 2333.78 921.208 2387.82 828.629 2429.14L826.583 2430.03L825.81 2430.39C642.364 2510.17 470.971 2517.99 339.515 2443.89C352.706 2529.75 380.681 2603.73 424.393 2661.12C501.311 2762.09 616.891 2798.93 753.805 2779.47C857.604 2764.72 973.504 2717.66 1094.13 2641.59L1099 2638.49C1191.18 2579.12 1279.33 2509.51 1362.46 2430.39C1382.17 2411.56 1401.88 2392.2 1421.59 2372.29L1422.54 2371.34C1496.03 2297.56 1565.69 2217.43 1631.05 2131.48C1651.43 2104.69 1671.25 2077.62 1690.5 2050.27L1691.37 2049.01Z" fill="url(#paint1_linear_1_158)"/>
</g>
</g>
<defs>
<filter id="filter0_f_1_158" x="0.252686" y="0.925903" width="2191.75" height="2845.79" filterUnits="userSpaceOnUse" color-interpolation-filters="sRGB">
<feFlood flood-opacity="0" result="BackgroundImageFix"/>
<feBlend mode="normal" in="SourceGraphic" in2="BackgroundImageFix" result="shape"/>
<feGaussianBlur stdDeviation="25" result="effect1_foregroundBlur_1_158"/>
</filter>
<filter id="filter1_i_1_158" x="50.3064" y="412.852" width="1798.34" height="2388.3" filterUnits="userSpaceOnUse" color-interpolation-filters="sRGB">
<feFlood flood-opacity="0" result="BackgroundImageFix"/>
<feBlend mode="normal" in="SourceGraphic" in2="BackgroundImageFix" result="shape"/>
<feColorMatrix in="SourceAlpha" type="matrix" values="0 0 0 0 0 0 0 0 0 0 0 0 0 0 0 0 0 0 127 0" result="hardAlpha"/>
<feOffset dy="16.6628"/>
<feGaussianBlur stdDeviation="41.657"/>
<feComposite in2="hardAlpha" operator="arithmetic" k2="-1" k3="1"/>
<feColorMatrix type="matrix" values="0 0 0 0 0 0 0 0 0 0 0 0 0 0 0 0 0 0 0.15 0"/>
<feBlend mode="normal" in2="shape" result="effect1_innerShadow_1_158"/>
</filter>
<filter id="filter2_i_1_158" x="339.515" y="413.227" width="1802.48" height="2387.91" filterUnits="userSpaceOnUse" color-interpolation-filters="sRGB">
<feFlood flood-opacity="0" result="BackgroundImageFix"/>
<feBlend mode="normal" in="SourceGraphic" in2="BackgroundImageFix" result="shape"/>
<feColorMatrix in="SourceAlpha" type="matrix" values="0 0 0 0 0 0 0 0 0 0 0 0 0 0 0 0 0 0 127 0" result="hardAlpha"/>
<feOffset dy="16.6628"/>
<feGaussianBlur stdDeviation="41.657"/>
<feComposite in2="hardAlpha" operator="arithmetic" k2="-1" k3="1"/>
<feColorMatrix type="matrix" values="0 0 0 0 0 0 0 0 0 0 0 0 0 0 0 0 0 0 0.15 0"/>
<feBlend mode="normal" in2="shape" result="effect1_innerShadow_1_158"/>
</filter>
<linearGradient id="paint0_linear_1_158" x1="50.2525" y1="2796.72" x2="-1800.7" y2="-1419.8" gradientUnits="userSpaceOnUse">
<stop stop-color="#149EE3"/>
<stop offset="1" stop-color="#5DFDB0"/>
</linearGradient>
<linearGradient id="paint1_linear_1_158" x1="1641.84" y1="1560.67" x2="1482.13" y2="2000.35" gradientUnits="userSpaceOnUse">
<stop stop-color="#5DFDB0"/>
<stop offset="1" stop-color="#5DFDF3"/>
</linearGradient>
</defs>
</svg>
