<svg width="2092" height="2747" viewBox="0 0 2092 2747" fill="none" xmlns="http://www.w3.org/2000/svg">
<g opacity="0.4">
<path fill-rule="evenodd" clip-rule="evenodd" d="M1044.09 725.634C1044.07 725.65 1044.06 725.667 1044.04 725.683C922.638 608.708 800.098 517.349 683.699 454.712C532.594 373.445 391.767 340.663 276.915 363.234C202.181 377.923 138.455 416.079 90.0578 479.612C40.0229 545.295 10.5478 632.832 0.267927 735.535C-0.732771 520.156 47.5278 332.065 150.008 197.535C345.599 -59.2245 690.294 -56.7164 1044.04 159.678C1172.42 239.272 1293.3 338.231 1404.23 454.553C1404.25 454.543 1404.27 454.532 1404.29 454.522C1455.84 508.143 1506.46 566.242 1556.17 628.82L1571.5 648.286L1585.14 666.199L1598.79 684.113C1602.74 689.299 1607.27 695.477 1611.62 701.394C1612.27 702.289 1612.93 703.178 1613.57 704.056C1685.22 801.492 1751.15 905.907 1810.8 1016.41C1870.94 1127.35 1923.57 1244.99 1968.09 1367.99C1970 1373.36 1971.91 1378.74 1973.78 1384.11C2135.89 1845.86 2136.8 2294.65 1942.16 2550.16C1809.89 2723.8 1609.57 2778.85 1384.37 2729.29C1521.28 2748.76 1636.86 2711.91 1713.78 2610.94C1757.49 2553.56 1785.46 2479.58 1798.65 2393.71C1821.81 2243.24 1800.06 2055.39 1739.11 1852.55L1738.43 1850.22C1703.64 1736.93 1661.28 1627.91 1611.84 1524.43C1531.24 1353.96 1427.4 1181.45 1303.22 1018.44C1222.62 912.353 1136 814.47 1044.09 725.634Z" fill="url(#paint0_linear_1_172)"/>
<g filter="url(#filter0_i_1_172)">
<path fill-rule="evenodd" clip-rule="evenodd" d="M780.85 2380.03C874.172 2338.53 963.862 2284.11 1048.4 2217.67L1046.22 2215.7C915.9 2113.15 795.83 1989.67 688.786 1848.12C612.426 1748.18 542.743 1639.82 480.504 1524.24C480.366 1523.98 480.227 1523.72 480.087 1523.45C479.487 1522.33 478.874 1521.17 478.321 1520.06C388.713 1352.27 322.576 1180.42 281.638 1016.1C281.183 1014.3 280.774 1012.57 280.364 1010.78C220.004 764.233 217.503 535.06 281.184 362.852L276.635 363.807C276.722 363.478 276.828 363.159 276.953 362.852C202.219 377.72 138.494 415.696 90.0962 479.229C39.9704 545.032 10.5863 632.45 0.306396 735.154C0.367045 750.161 0.670064 765.308 1.2159 780.594C-6.33482 951.608 34.1938 1159.4 116.478 1378.07C117.161 1380.22 117.888 1382.13 118.616 1384.04C166.701 1509.22 223.014 1628.66 286.915 1740.99C306.869 1777.7 327.807 1814.12 349.731 1850.27C380.237 1900.62 412.593 1950.16 446.799 1998.89L447.663 2000.14C466.919 2027.53 486.736 2054.6 507.114 2081.35C572.501 2167.35 642.19 2247.52 715.714 2321.33L716.669 2322.29C736.562 2342.19 756.561 2361.44 776.665 2380.03L778.712 2379.13L780.077 2380.38L780.85 2380.03ZM1713.77 2611.13C1757.48 2553.75 1785.45 2479.95 1798.64 2393.9C1667.01 2468 1495.8 2460.18 1312.35 2380.41L1311.58 2380.05C1227.1 2458.61 1137.58 2527.38 1044.03 2585.58L1039.16 2588.5L1044.03 2591.61C1164.66 2667.68 1280.65 2714.73 1384.36 2729.48C1521.27 2748.95 1636.85 2712.1 1713.77 2611.13Z" fill="#5DFDB0"/>
</g>
<g filter="url(#filter1_i_1_172)">
<path fill-rule="evenodd" clip-rule="evenodd" d="M1968.01 1368.05C1969.92 1373.43 1971.83 1378.8 1973.69 1384.17C2064.89 1143.89 2105.88 915.976 2087.82 735.528C2077.54 632.824 2048.06 545.287 1998.03 479.604C1949.63 416.071 1885.9 377.916 1811.17 363.227C1875.26 536.688 1872.3 767.892 1810.72 1016.47C1870.86 1127.42 1923.49 1245.06 1968.01 1368.05ZM1641.37 1999.01C1675.79 1950.77 1708.37 1902 1739.12 1852.72L1738.53 1850.63C1703.73 1737.35 1661.37 1628.33 1611.94 1524.85C1549.7 1640.43 1480.02 1748.79 1403.66 1848.72C1296.61 1990.27 1176.54 2113.75 1046.23 2216.31L1044.13 2217.92C960.203 2283.78 871.208 2337.82 778.629 2379.14L776.583 2380.03L775.81 2380.39C592.364 2460.17 420.971 2467.99 289.515 2393.89C302.706 2479.75 330.681 2553.73 374.393 2611.12C451.311 2712.09 566.891 2748.93 703.805 2729.47C807.604 2714.72 923.504 2667.66 1044.13 2591.59L1049 2588.49C1141.18 2529.12 1229.33 2459.51 1312.46 2380.39C1332.17 2361.56 1351.88 2342.2 1371.59 2322.29L1372.54 2321.34C1446.03 2247.56 1515.69 2167.43 1581.05 2081.48C1601.43 2054.69 1621.25 2027.62 1640.5 2000.27L1641.37 1999.01Z" fill="url(#paint1_linear_1_172)"/>
</g>
</g>
<defs>
<filter id="filter0_i_1_172" x="0.306396" y="362.852" width="1798.34" height="2388.3" filterUnits="userSpaceOnUse" color-interpolation-filters="sRGB">
<feFlood flood-opacity="0" result="BackgroundImageFix"/>
<feBlend mode="normal" in="SourceGraphic" in2="BackgroundImageFix" result="shape"/>
<feColorMatrix in="SourceAlpha" type="matrix" values="0 0 0 0 0 0 0 0 0 0 0 0 0 0 0 0 0 0 127 0" result="hardAlpha"/>
<feOffset dy="16.6628"/>
<feGaussianBlur stdDeviation="41.657"/>
<feComposite in2="hardAlpha" operator="arithmetic" k2="-1" k3="1"/>
<feColorMatrix type="matrix" values="0 0 0 0 0 0 0 0 0 0 0 0 0 0 0 0 0 0 0.15 0"/>
<feBlend mode="normal" in2="shape" result="effect1_innerShadow_1_172"/>
</filter>
<filter id="filter1_i_1_172" x="289.515" y="363.227" width="1802.48" height="2387.91" filterUnits="userSpaceOnUse" color-interpolation-filters="sRGB">
<feFlood flood-opacity="0" result="BackgroundImageFix"/>
<feBlend mode="normal" in="SourceGraphic" in2="BackgroundImageFix" result="shape"/>
<feColorMatrix in="SourceAlpha" type="matrix" values="0 0 0 0 0 0 0 0 0 0 0 0 0 0 0 0 0 0 127 0" result="hardAlpha"/>
<feOffset dy="16.6628"/>
<feGaussianBlur stdDeviation="41.657"/>
<feComposite in2="hardAlpha" operator="arithmetic" k2="-1" k3="1"/>
<feColorMatrix type="matrix" values="0 0 0 0 0 0 0 0 0 0 0 0 0 0 0 0 0 0 0.15 0"/>
<feBlend mode="normal" in2="shape" result="effect1_innerShadow_1_172"/>
</filter>
<linearGradient id="paint0_linear_1_172" x1="0.252517" y1="2746.72" x2="-1850.7" y2="-1469.8" gradientUnits="userSpaceOnUse">
<stop stop-color="#149EE3"/>
<stop offset="1" stop-color="#5DFDB0"/>
</linearGradient>
<linearGradient id="paint1_linear_1_172" x1="1591.84" y1="1510.67" x2="1432.13" y2="1950.35" gradientUnits="userSpaceOnUse">
<stop stop-color="#5DFDB0"/>
<stop offset="1" stop-color="#5DFDF3"/>
</linearGradient>
</defs>
</svg>
