<svg width="19" height="19" viewBox="0 0 19 19" fill="none" xmlns="http://www.w3.org/2000/svg">
<path d="M9.75 18.5C14.5825 18.5 18.5 14.5825 18.5 9.75C18.5 4.91751 14.5825 1 9.75 1C4.91751 1 1 4.91751 1 9.75C1 14.5825 4.91751 18.5 9.75 18.5Z" fill="white" stroke="#E8E8E8" stroke-linecap="round" stroke-linejoin="round"/>
<path d="M7.65986 14.6068C7.91251 14.6068 8.11733 14.402 8.11733 14.1494C8.11733 13.8967 7.91251 13.6919 7.65986 13.6919C7.40721 13.6919 7.20239 13.8967 7.20239 14.1494C7.20239 14.402 7.40721 14.6068 7.65986 14.6068Z" stroke="url(#paint0_linear_13_154)" stroke-width="1.5" stroke-linecap="round" stroke-linejoin="round"/>
<path d="M12.692 14.6068C12.9446 14.6068 13.1494 14.402 13.1494 14.1494C13.1494 13.8967 12.9446 13.6919 12.692 13.6919C12.4393 13.6919 12.2345 13.8967 12.2345 14.1494C12.2345 14.402 12.4393 14.6068 12.692 14.6068Z" stroke="url(#paint1_linear_13_154)" stroke-width="1.5" stroke-linecap="round" stroke-linejoin="round"/>
<path d="M4 5H5.82987L7.05589 11.1255C7.09772 11.3361 7.2123 11.5253 7.37957 11.66C7.54684 11.7946 7.75613 11.8661 7.97083 11.862H12.4174C12.6321 11.8661 12.8414 11.7946 13.0087 11.66C13.1759 11.5253 13.2905 11.3361 13.3324 11.1255L14.0643 7.28734H6.28734" stroke="url(#paint2_linear_13_154)" stroke-linecap="round" stroke-linejoin="round"/>
<defs>
<linearGradient id="paint0_linear_13_154" x1="7.20239" y1="14.6068" x2="6.69837" y2="13.0996" gradientUnits="userSpaceOnUse">
<stop stop-color="#149EE3"/>
<stop offset="1" stop-color="#5DFDB0"/>
</linearGradient>
<linearGradient id="paint1_linear_13_154" x1="12.2345" y1="14.6068" x2="11.7305" y2="13.0996" gradientUnits="userSpaceOnUse">
<stop stop-color="#149EE3"/>
<stop offset="1" stop-color="#5DFDB0"/>
</linearGradient>
<linearGradient id="paint2_linear_13_154" x1="4" y1="11.8622" x2="1.27585" y2="-0.085087" gradientUnits="userSpaceOnUse">
<stop stop-color="#149EE3"/>
<stop offset="1" stop-color="#5DFDB0"/>
</linearGradient>
</defs>
</svg>
