<svg width="20" height="19" viewBox="0 0 20 19" fill="none" xmlns="http://www.w3.org/2000/svg">
<g opacity="0.5">
<path d="M9.82615 18.0983C14.6849 18.0983 18.6236 14.1595 18.6236 9.30079C18.6236 4.44209 14.6849 0.503326 9.82615 0.503326C4.96745 0.503326 1.02869 4.44209 1.02869 9.30079C1.02869 14.1595 4.96745 18.0983 9.82615 18.0983Z" fill="white" stroke="#E8E8E8" stroke-linecap="round" stroke-linejoin="round"/>
<g clip-path="url(#clip0_1_565)">
<path d="M8.45255 13.8757C8.70521 13.8757 8.91002 13.6709 8.91002 13.4183C8.91002 13.1656 8.70521 12.9608 8.45255 12.9608C8.1999 12.9608 7.99509 13.1656 7.99509 13.4183C7.99509 13.6709 8.1999 13.8757 8.45255 13.8757Z" stroke="url(#paint0_linear_1_565)" stroke-width="1.5" stroke-linecap="round" stroke-linejoin="round"/>
<path d="M13.4847 13.8757C13.7373 13.8757 13.9422 13.6709 13.9422 13.4183C13.9422 13.1656 13.7373 12.9608 13.4847 12.9608C13.232 12.9608 13.0272 13.1656 13.0272 13.4183C13.0272 13.6709 13.232 13.8757 13.4847 13.8757Z" stroke="url(#paint1_linear_1_565)" stroke-width="1.5" stroke-linecap="round" stroke-linejoin="round"/>
<path d="M4.79279 4.26889H6.62266L7.84867 10.3944C7.89051 10.605 8.00509 10.7942 8.17235 10.9288C8.33962 11.0635 8.54892 11.135 8.76361 11.1309H13.2102C13.4249 11.135 13.6342 11.0635 13.8015 10.9288C13.9687 10.7942 14.0833 10.605 14.1251 10.3944L14.8571 6.55623H7.08013" stroke="url(#paint2_linear_1_565)" stroke-linecap="round" stroke-linejoin="round"/>
</g>
</g>
<defs>
<linearGradient id="paint0_linear_1_565" x1="7.99509" y1="13.8757" x2="7.49106" y2="12.3685" gradientUnits="userSpaceOnUse">
<stop stop-color="#149EE3"/>
<stop offset="1" stop-color="#5DFDB0"/>
</linearGradient>
<linearGradient id="paint1_linear_1_565" x1="13.0272" y1="13.8757" x2="12.5232" y2="12.3685" gradientUnits="userSpaceOnUse">
<stop stop-color="#149EE3"/>
<stop offset="1" stop-color="#5DFDB0"/>
</linearGradient>
<linearGradient id="paint2_linear_1_565" x1="4.79278" y1="11.1311" x2="2.06864" y2="-0.816197" gradientUnits="userSpaceOnUse">
<stop stop-color="#149EE3"/>
<stop offset="1" stop-color="#5DFDB0"/>
</linearGradient>
<clipPath id="clip0_1_565">
<rect width="10.9792" height="10.9792" fill="white" transform="translate(4.33533 3.81143)"/>
</clipPath>
</defs>
</svg>
