<svg width="892" height="871" viewBox="0 0 892 871" fill="none" xmlns="http://www.w3.org/2000/svg">
<g opacity="0.75" filter="url(#filter0_f_1_145)">
<path d="M874.726 645.915C936.217 868.739 708.431 891.42 544.045 824.139C448.134 789.537 385.147 897.146 266.331 854.2C147.515 811.255 289.951 675.977 108.148 606.548C-73.6543 537.119 15.1001 226.481 173.998 222.902C332.897 219.323 289.235 167.073 448.134 47.541C607.032 -71.9906 874.726 94.0655 808.16 269.426C741.595 444.787 808.161 404.704 874.726 645.915Z" stroke="url(#paint0_linear_1_145)" stroke-width="3"/>
<path d="M532.74 472.503C539.835 493.726 506.603 527.963 479.882 513.352C455.412 499.971 430.495 508.995 414.032 503.03C370.693 487.327 386.635 479.014 367.261 460.363C343.685 437.668 332.436 378.238 386.635 378.238C431.21 378.238 417.873 356.588 451.252 346.995C484.631 337.402 522.484 353.732 522.484 396.722C522.484 412.867 520.923 437.156 532.74 472.503Z" stroke="url(#paint1_linear_1_145)" stroke-width="3"/>
<path d="M843.641 631.233C900.187 835.73 690.088 859.461 538.217 796.968C448.8 764.295 389.274 862.942 279.763 823.359C167.809 782.89 298.745 659.154 131.709 594.341C-35.7097 529.161 43.9535 241.36 193.334 238.106C341.839 234.853 300.934 185.384 448.422 75.8471C595.909 -33.6901 842.708 118.754 782.194 282.081C721.68 442.968 782.053 408.737 843.641 631.233Z" stroke="url(#paint2_linear_1_145)" stroke-width="3"/>
<path d="M812.556 616.55C864.156 802.719 671.744 827.501 532.388 769.796C449.466 739.053 393.401 828.737 293.195 792.516C188.102 754.523 307.539 642.33 155.269 582.133C2.23474 521.202 72.8066 256.237 212.669 253.309C350.781 250.381 312.633 203.694 448.71 104.152C584.786 4.60893 810.691 143.442 756.228 294.735C701.765 441.148 755.945 412.769 812.556 616.55Z" stroke="url(#paint3_linear_1_145)" stroke-width="3"/>
<path d="M781.47 601.866C828.126 769.708 653.4 795.54 526.559 742.624C450.132 713.809 397.528 794.532 306.627 761.672C208.395 726.156 316.332 625.505 178.829 569.925C40.179 513.241 101.66 271.114 232.003 268.512C359.723 265.909 324.332 222.004 448.997 132.456C573.663 42.9073 778.673 168.129 730.262 307.389C681.851 439.327 729.837 416.8 781.47 601.866Z" stroke="url(#paint4_linear_1_145)" stroke-width="3"/>
<path d="M750.385 587.182C792.095 736.696 635.056 763.579 520.73 715.451C450.798 688.566 401.654 760.326 320.058 730.828C228.688 697.788 325.126 608.679 202.388 557.715C78.1229 505.281 130.512 285.991 251.338 283.713C368.664 281.436 336.03 240.313 449.285 160.759C562.54 81.2051 746.655 192.815 704.295 320.041C661.935 437.505 703.728 420.83 750.385 587.182Z" stroke="url(#paint5_linear_1_145)" stroke-width="3"/>
<path d="M719.296 571.753C756.061 702.94 616.709 730.874 514.898 687.534C451.46 662.578 405.778 725.376 333.486 699.24C248.978 668.677 333.916 591.11 225.945 544.762C116.064 496.576 159.362 300.123 270.669 298.171C377.603 296.219 347.725 257.878 449.569 188.319C551.413 118.759 714.634 216.757 678.326 331.95C642.017 434.94 677.616 424.117 719.296 571.753Z" stroke="url(#paint6_linear_1_145)" stroke-width="3"/>
<path d="M688.209 555.444C720.03 668.304 598.365 697.288 509.068 658.736C452.125 635.709 409.903 689.545 346.917 666.77C269.27 638.684 342.709 572.66 249.504 530.928C154.007 486.99 188.214 313.375 290.003 311.748C386.544 310.121 359.423 274.562 449.856 214.997C540.289 155.432 682.615 239.819 652.358 342.978C622.101 431.493 651.507 426.522 688.209 555.444Z" stroke="url(#paint7_linear_1_145)" stroke-width="3"/>
<path d="M657.122 539.086C683.998 633.619 580.019 663.654 503.238 629.89C452.789 608.793 414.028 653.666 360.346 634.253C289.561 608.643 351.5 554.162 273.062 517.046C191.949 477.357 217.065 326.578 309.336 325.277C395.484 323.976 371.119 291.198 450.142 241.628C529.164 192.057 650.596 262.832 626.39 353.958C602.184 427.999 625.397 428.88 657.122 539.086Z" stroke="url(#paint8_linear_1_145)" stroke-width="3"/>
<path d="M626.034 522.659C647.964 598.864 561.672 629.949 497.406 600.973C453.452 581.805 418.152 617.716 373.775 601.666C309.851 578.532 360.291 535.593 296.619 503.094C229.89 467.653 245.915 339.712 328.668 338.736C404.422 337.76 382.815 307.764 450.426 268.188C518.038 228.611 618.575 285.775 600.421 364.867C582.267 424.434 599.286 431.167 626.034 522.659Z" stroke="url(#paint9_linear_1_145)" stroke-width="3"/>
<path d="M594.943 506.126C611.928 564.004 543.323 596.14 491.572 571.952C454.113 554.714 422.273 581.662 387.201 568.974C330.139 548.317 369.079 516.92 320.173 489.037C267.829 457.844 274.762 352.74 347.997 352.09C413.359 351.439 394.508 324.225 450.708 294.643C506.909 265.062 586.552 308.614 574.449 375.672C562.346 420.765 573.172 433.35 594.943 506.126Z" stroke="url(#paint10_linear_1_145)" stroke-width="3"/>
<path d="M563.848 489.437C575.888 528.987 524.969 562.174 485.733 542.774C454.769 527.465 426.39 545.451 400.623 536.124C350.422 517.944 377.863 498.089 343.723 474.822C305.763 447.878 303.605 365.611 367.322 365.286C422.291 364.961 406.196 340.529 450.986 320.941C495.776 301.354 554.524 331.295 548.473 386.319C542.421 416.938 547.054 435.375 563.848 489.437Z" stroke="url(#paint11_linear_1_145)" stroke-width="3"/>
</g>
<defs>
<filter id="filter0_f_1_145" x="0.505859" y="0.498779" width="890.994" height="870.489" filterUnits="userSpaceOnUse" color-interpolation-filters="sRGB">
<feFlood flood-opacity="0" result="BackgroundImageFix"/>
<feBlend mode="normal" in="SourceGraphic" in2="BackgroundImageFix" result="shape"/>
<feGaussianBlur stdDeviation="2.5" result="effect1_foregroundBlur_1_145"/>
</filter>
<linearGradient id="paint0_linear_1_145" x1="885" y1="6.99927" x2="1348.5" y2="1426.15" gradientUnits="userSpaceOnUse">
<stop stop-color="#149EE3"/>
<stop offset="1" stop-color="#5DFDB0"/>
</linearGradient>
<linearGradient id="paint1_linear_1_145" x1="533.711" y1="344.338" x2="623.129" y2="632.608" gradientUnits="userSpaceOnUse">
<stop stop-color="#149EE3"/>
<stop offset="1" stop-color="#5DFDB0"/>
</linearGradient>
<linearGradient id="paint2_linear_1_145" x1="853.065" y1="38.7681" x2="1281.49" y2="1353.64" gradientUnits="userSpaceOnUse">
<stop stop-color="#149EE3"/>
<stop offset="1" stop-color="#5DFDB0"/>
</linearGradient>
<linearGradient id="paint3_linear_1_145" x1="821.13" y1="70.5349" x2="1214.5" y2="1281.12" gradientUnits="userSpaceOnUse">
<stop stop-color="#149EE3"/>
<stop offset="1" stop-color="#5DFDB0"/>
</linearGradient>
<linearGradient id="paint4_linear_1_145" x1="789.195" y1="102.3" x2="1147.5" y2="1208.6" gradientUnits="userSpaceOnUse">
<stop stop-color="#149EE3"/>
<stop offset="1" stop-color="#5DFDB0"/>
</linearGradient>
<linearGradient id="paint5_linear_1_145" x1="757.26" y1="134.064" x2="1080.51" y2="1136.07" gradientUnits="userSpaceOnUse">
<stop stop-color="#149EE3"/>
<stop offset="1" stop-color="#5DFDB0"/>
</linearGradient>
<linearGradient id="paint6_linear_1_145" x1="725.322" y1="165.083" x2="1014.25" y2="1063.79" gradientUnits="userSpaceOnUse">
<stop stop-color="#149EE3"/>
<stop offset="1" stop-color="#5DFDB0"/>
</linearGradient>
<linearGradient id="paint7_linear_1_145" x1="693.387" y1="195.219" x2="948.834" y2="991.825" gradientUnits="userSpaceOnUse">
<stop stop-color="#149EE3"/>
<stop offset="1" stop-color="#5DFDB0"/>
</linearGradient>
<linearGradient id="paint8_linear_1_145" x1="661.451" y1="225.304" x2="883.469" y2="919.876" gradientUnits="userSpaceOnUse">
<stop stop-color="#149EE3"/>
<stop offset="1" stop-color="#5DFDB0"/>
</linearGradient>
<linearGradient id="paint9_linear_1_145" x1="629.516" y1="255.314" x2="818.171" y2="847.956" gradientUnits="userSpaceOnUse">
<stop stop-color="#149EE3"/>
<stop offset="1" stop-color="#5DFDB0"/>
</linearGradient>
<linearGradient id="paint10_linear_1_145" x1="597.581" y1="285.21" x2="752.973" y2="776.08" gradientUnits="userSpaceOnUse">
<stop stop-color="#149EE3"/>
<stop offset="1" stop-color="#5DFDB0"/>
</linearGradient>
<linearGradient id="paint11_linear_1_145" x1="565.646" y1="314.927" x2="687.925" y2="704.276" gradientUnits="userSpaceOnUse">
<stop stop-color="#149EE3"/>
<stop offset="1" stop-color="#5DFDB0"/>
</linearGradient>
</defs>
</svg>
