<svg width="892" height="871" viewBox="0 0 892 871" fill="none" xmlns="http://www.w3.org/2000/svg">
<g opacity="0.75" filter="url(#filter0_f_1_132)">
<path d="M17.2742 225.573C-44.2169 2.74923 183.569 -19.9316 347.955 47.3497C443.866 81.9516 506.853 -25.6577 625.669 17.2878C744.485 60.2333 602.049 195.512 783.852 264.94C965.654 334.369 876.9 645.008 718.002 648.586C559.103 652.165 602.765 704.416 443.866 823.947C284.968 943.479 17.2745 777.423 83.84 602.062C150.405 426.701 83.8392 466.784 17.2742 225.573Z" stroke="url(#paint0_linear_1_132)" stroke-width="3"/>
<path d="M359.26 398.985C352.165 377.763 385.397 343.525 412.118 358.137C436.588 371.517 461.505 362.493 477.968 368.458C521.307 384.162 505.365 392.474 524.739 411.125C548.315 433.82 559.564 493.25 505.365 493.25C460.79 493.25 474.127 514.9 440.748 524.493C407.369 534.086 369.516 517.757 369.516 474.766C369.516 458.622 371.077 434.333 359.26 398.985Z" stroke="url(#paint1_linear_1_132)" stroke-width="3"/>
<path d="M48.3592 240.255C-8.18675 35.7585 201.912 12.0271 353.783 74.5202C443.2 107.193 502.726 8.54589 612.237 48.1295C724.191 88.5985 593.255 212.335 760.291 277.147C927.71 342.327 848.047 630.129 698.666 633.382C550.161 636.635 591.066 686.104 443.578 795.641C296.091 905.178 49.2919 752.734 109.806 589.407C170.32 428.52 109.947 462.751 48.3592 240.255Z" stroke="url(#paint2_linear_1_132)" stroke-width="3"/>
<path d="M79.4444 254.938C27.8435 68.7691 220.256 43.987 359.612 101.692C442.534 132.435 498.599 42.7507 598.805 78.9725C703.898 116.965 584.461 229.159 736.731 289.355C889.765 350.286 819.193 615.251 679.331 618.179C541.219 621.107 579.367 667.794 443.29 767.337C307.214 866.879 81.3093 728.046 135.772 576.753C190.235 430.341 136.055 458.719 79.4444 254.938Z" stroke="url(#paint3_linear_1_132)" stroke-width="3"/>
<path d="M110.53 269.622C63.874 101.78 238.6 75.9478 365.441 128.865C441.868 157.679 494.472 76.9564 585.373 109.816C683.605 145.332 575.668 245.984 713.171 301.564C851.821 358.247 790.34 600.374 659.997 602.977C532.277 605.579 567.668 649.484 443.003 739.033C318.337 828.581 113.327 703.36 161.738 564.1C210.149 432.162 162.163 454.688 110.53 269.622Z" stroke="url(#paint4_linear_1_132)" stroke-width="3"/>
<path d="M141.615 284.307C99.9047 134.792 256.944 107.909 371.27 156.038C441.202 182.923 490.346 111.162 571.942 140.661C663.312 173.7 566.874 262.809 689.612 313.773C813.877 366.207 761.488 585.497 640.662 587.775C523.336 590.052 555.97 631.175 442.715 710.729C329.46 790.283 145.345 678.673 187.705 551.447C230.065 433.983 188.272 450.658 141.615 284.307Z" stroke="url(#paint5_linear_1_132)" stroke-width="3"/>
<path d="M172.704 299.735C135.939 168.548 275.291 140.614 377.102 183.955C440.54 208.91 486.222 146.112 558.514 172.249C643.022 202.812 558.084 280.378 666.055 326.726C775.936 374.912 732.638 571.365 621.331 573.317C514.397 575.269 544.275 613.61 442.431 683.17C340.587 752.729 177.366 654.731 213.674 539.538C249.983 436.549 214.384 447.371 172.704 299.735Z" stroke="url(#paint6_linear_1_132)" stroke-width="3"/>
<path d="M203.791 316.044C171.97 203.185 293.635 174.2 382.932 212.753C439.875 235.779 482.097 181.943 545.083 204.718C622.73 232.804 549.291 298.828 642.496 340.56C737.993 384.498 703.786 558.113 601.997 559.74C505.456 561.367 532.577 596.926 442.144 656.491C351.711 716.056 209.385 631.669 239.642 528.51C269.899 439.995 240.493 444.966 203.791 316.044Z" stroke="url(#paint7_linear_1_132)" stroke-width="3"/>
<path d="M234.878 332.402C208.003 237.869 311.981 207.834 388.762 241.599C439.211 262.696 477.972 217.822 531.654 237.235C602.439 262.845 540.5 317.327 618.938 354.442C700.051 394.131 674.935 544.91 582.664 546.211C496.516 547.512 520.881 580.29 441.859 629.861C362.836 679.431 241.404 608.656 265.61 517.531C289.816 443.49 266.603 442.608 234.878 332.402Z" stroke="url(#paint8_linear_1_132)" stroke-width="3"/>
<path d="M265.966 348.83C244.036 272.625 330.328 241.539 394.594 270.515C438.548 289.683 473.848 253.772 518.225 269.823C582.149 292.956 531.709 335.895 595.382 368.395C662.11 403.835 646.086 531.777 563.332 532.753C487.578 533.729 509.185 563.724 441.574 603.301C373.963 642.877 273.425 585.713 291.579 506.621C309.734 447.054 292.714 440.321 265.966 348.83Z" stroke="url(#paint9_linear_1_132)" stroke-width="3"/>
<path d="M297.057 365.362C280.072 307.484 348.677 275.348 400.428 299.536C437.887 316.774 469.727 289.826 504.799 302.515C561.861 323.171 522.921 354.568 571.827 382.452C624.171 413.644 617.238 518.748 544.003 519.399C478.641 520.049 497.492 547.263 441.292 576.845C385.091 606.427 305.448 562.874 317.551 495.816C329.654 450.724 318.828 438.139 297.057 365.362Z" stroke="url(#paint10_linear_1_132)" stroke-width="3"/>
<path d="M328.152 382.052C316.112 342.501 367.031 309.314 406.267 328.714C437.231 344.024 465.61 326.037 491.377 335.364C541.578 353.544 514.137 373.399 548.277 396.666C586.237 423.61 588.395 505.877 524.678 506.202C469.709 506.527 485.804 530.959 441.014 550.547C396.224 570.134 337.476 540.194 343.527 485.169C349.579 454.551 344.946 436.113 328.152 382.052Z" stroke="url(#paint11_linear_1_132)" stroke-width="3"/>
</g>
<defs>
<filter id="filter0_f_1_132" x="0.500099" y="0.500122" width="890.994" height="870.489" filterUnits="userSpaceOnUse" color-interpolation-filters="sRGB">
<feFlood flood-opacity="0" result="BackgroundImageFix"/>
<feBlend mode="normal" in="SourceGraphic" in2="BackgroundImageFix" result="shape"/>
<feGaussianBlur stdDeviation="2.5" result="effect1_foregroundBlur_1_132"/>
</filter>
<linearGradient id="paint0_linear_1_132" x1="6.99993" y1="864.489" x2="-456.496" y2="-554.664" gradientUnits="userSpaceOnUse">
<stop stop-color="#149EE3"/>
<stop offset="1" stop-color="#5DFDB0"/>
</linearGradient>
<linearGradient id="paint1_linear_1_132" x1="358.289" y1="527.151" x2="268.871" y2="238.881" gradientUnits="userSpaceOnUse">
<stop stop-color="#149EE3"/>
<stop offset="1" stop-color="#5DFDB0"/>
</linearGradient>
<linearGradient id="paint2_linear_1_132" x1="38.935" y1="832.72" x2="-389.495" y2="-482.149" gradientUnits="userSpaceOnUse">
<stop stop-color="#149EE3"/>
<stop offset="1" stop-color="#5DFDB0"/>
</linearGradient>
<linearGradient id="paint3_linear_1_132" x1="70.8702" y1="800.953" x2="-322.497" y2="-409.63" gradientUnits="userSpaceOnUse">
<stop stop-color="#149EE3"/>
<stop offset="1" stop-color="#5DFDB0"/>
</linearGradient>
<linearGradient id="paint4_linear_1_132" x1="102.805" y1="769.188" x2="-255.502" y2="-337.107" gradientUnits="userSpaceOnUse">
<stop stop-color="#149EE3"/>
<stop offset="1" stop-color="#5DFDB0"/>
</linearGradient>
<linearGradient id="paint5_linear_1_132" x1="134.74" y1="737.424" x2="-188.513" y2="-264.58" gradientUnits="userSpaceOnUse">
<stop stop-color="#149EE3"/>
<stop offset="1" stop-color="#5DFDB0"/>
</linearGradient>
<linearGradient id="paint6_linear_1_132" x1="166.678" y1="706.405" x2="-122.246" y2="-192.306" gradientUnits="userSpaceOnUse">
<stop stop-color="#149EE3"/>
<stop offset="1" stop-color="#5DFDB0"/>
</linearGradient>
<linearGradient id="paint7_linear_1_132" x1="198.613" y1="676.269" x2="-56.8338" y2="-120.337" gradientUnits="userSpaceOnUse">
<stop stop-color="#149EE3"/>
<stop offset="1" stop-color="#5DFDB0"/>
</linearGradient>
<linearGradient id="paint8_linear_1_132" x1="230.549" y1="646.184" x2="8.53115" y2="-48.3882" gradientUnits="userSpaceOnUse">
<stop stop-color="#149EE3"/>
<stop offset="1" stop-color="#5DFDB0"/>
</linearGradient>
<linearGradient id="paint9_linear_1_132" x1="262.484" y1="616.175" x2="73.8288" y2="23.532" gradientUnits="userSpaceOnUse">
<stop stop-color="#149EE3"/>
<stop offset="1" stop-color="#5DFDB0"/>
</linearGradient>
<linearGradient id="paint10_linear_1_132" x1="294.419" y1="586.279" x2="139.028" y2="95.4087" gradientUnits="userSpaceOnUse">
<stop stop-color="#149EE3"/>
<stop offset="1" stop-color="#5DFDB0"/>
</linearGradient>
<linearGradient id="paint11_linear_1_132" x1="326.354" y1="556.561" x2="204.075" y2="167.212" gradientUnits="userSpaceOnUse">
<stop stop-color="#149EE3"/>
<stop offset="1" stop-color="#5DFDB0"/>
</linearGradient>
</defs>
</svg>
